<svg id="Layer_1" data-name="Layer 1" xmlns="http://www.w3.org/2000/svg" viewBox="0 0 800 200"><defs><style>.cls-1{fill:#04497c;}</style></defs><path class="cls-1" d="M50.77,19.38h0A28.28,28.28,0,0,1,79,47.66V171.59a0,0,0,0,1,0,0h0A56.56,56.56,0,0,1,22.49,115V47.66A28.28,28.28,0,0,1,50.77,19.38Z"/><rect class="cls-1" x="101.11" y="19.38" width="56.56" height="56.56" rx="28.28"/><path class="cls-1" d="M129.39,86.28h0a28.28,28.28,0,0,1,28.28,28.28V115a56.56,56.56,0,0,1-56.56,56.56h0a0,0,0,0,1,0,0v-57A28.28,28.28,0,0,1,129.39,86.28Z"/><path class="cls-1" d="M244.16,56.62c0,15.75-9.79,26.3-24.41,26.3C204.9,82.92,195,72.37,195,56.62V24.51h8.06V56.62c0,11.23,6.63,18.54,16.66,18.54,9.72,0,16.27-7.31,16.27-18.54V24.51h8.14Z"/><path class="cls-1" d="M299,81.79,274.68,55.94H263.91V81.79h-8.07V24.51h21c11.3,0,18.39,6.41,18.39,15.68C295.26,47.35,291,52.85,284,55L309.2,81.79ZM276.87,48.55c6.48,0,10.32-3.46,10.32-8.36s-3.84-8.36-10.32-8.36h-13V48.55Z"/><path class="cls-1" d="M360.82,64.68c0,10.25-7.76,17.11-20,17.11H314.4V24.51h25.1c10.09,0,16.65,5.66,16.65,14.4,0,4.82-2,8.44-5.2,10.62C357.21,52.1,360.82,57.67,360.82,64.68ZM322.46,47.2h17.41c5.13,0,8.37-2.94,8.37-7.61s-3.32-7.69-8.74-7.69h-17Zm18.32,27.2c7.53,0,12.2-4,12.2-10.17s-4.74-10.48-12.58-10.48H322.46V74.4Z"/><path class="cls-1" d="M415.08,81.79l-5.65-12.44H378.91l-5.65,12.44h-9L391,24.51h6.4l26.76,57.28Zm-20.87-46.2L382.23,62h23.89Z"/><path class="cls-1" d="M482.83,81.79h-5.72L438.6,39.21l-.08,42.58h-8.06V24.51h5.73L474.77,67.7V24.51h8.06Z"/><path class="cls-1" d="M195.55,165.32V108.05h8.07v57.27Z"/><path class="cls-1" d="M267.9,165.32h-5.73l-38.51-42.58-.07,42.58h-8.06V108.05h5.72l38.59,43.18V108.05h8.06Z"/><path class="cls-1" d="M302.12,115.36v50H294v-50H275.59v-7.31h45v7.31Z"/><path class="cls-1" d="M368.28,165.32H328.19V108.05h39.87v7.38h-31.8v16.73h29.91v7.24H336.26V158h32Z"/><path class="cls-1" d="M417,165.32H378.53V108.05h8.07v50H417Z"/><path class="cls-1" d="M464.22,165.32H425.79V108.05h8.06v50h30.37Z"/><path class="cls-1" d="M473,165.32V108.05h8.06v57.27Z"/><path class="cls-1" d="M548.63,133.37c.07,1.35.15,2.56.15,3.46,0,16.66-11.68,29.62-28.49,29.62a29.31,29.31,0,0,1-29.62-29.69C490.67,120.1,503.56,107,520,107c12.28,0,23.36,6.71,27.28,18.47L540,128a20.8,20.8,0,0,0-20-13.42c-11.83,0-21.1,9.72-21.1,22.16s9.42,22.08,21.63,22.08c11.08,0,18.91-7.54,20.42-18.16H514.56v-7.31Z"/><path class="cls-1" d="M598.44,165.32H558.35V108.05h39.87v7.38H566.41v16.73h29.92v7.24H566.41V158h32Z"/><path class="cls-1" d="M661.07,165.32h-5.73l-38.51-42.58-.07,42.58h-8.07V108.05h5.73L653,151.23V108.05h8.07Z"/><path class="cls-1" d="M719.93,142.71l7.83,1.66c-3,13.79-14.09,22.08-27.73,22.08-16.5,0-29.39-13-29.39-29.69S683.53,107,700,107c13.64,0,24.64,8.44,27.73,21.55l-7.83,2.19c-2.57-10.4-10.25-16.13-19.9-16.13-11.91,0-21.25,9.65-21.25,22.16s9.34,22.08,21.25,22.08C709.68,158.84,717.36,153.19,719.93,142.71Z"/><path class="cls-1" d="M777.43,165.32h-40.1V108.05H777.2v7.38H745.4v16.73h29.92v7.24H745.4V158h32Z"/></svg>